<?xml version="1.0" encoding="utf-8"?>
<!-- Generator: Adobe Illustrator 23.0.1, SVG Export Plug-In . SVG Version: 6.00 Build 0)  -->
<svg version="1.1" id="Layer_1" xmlns="http://www.w3.org/2000/svg" xmlns:xlink="http://www.w3.org/1999/xlink" x="0px" y="0px"
	 viewBox="0 0 255 264" style="enable-background:new 0 0 255 264;" xml:space="preserve">
<style type="text/css">
	.st0{fill:#153E50;}
	.st1{fill:#FFFFFF;}
</style>
<g>
	<path class="st0" d="M137.76,123.99h35.28v98.66h27.95v29.71h-63.23V123.99z"/>
</g>
<g>
	<path class="st0" d="M54.93,123.99h71.38v27.09h-36.1v23.11H122v26.24H90.21v50.01H54.93V123.99z"/>
	<path class="st1" d="M74.69,151.07h-4.43c-0.91,0-1.65-0.74-1.65-1.65v-12.17c0-0.91,0.74-1.65,1.65-1.65h4.43
		c0.91,0,1.65,0.74,1.65,1.65v12.17C76.35,150.33,75.61,151.07,74.69,151.07z"/>
	<path class="st1" d="M74.69,180.09h-4.43c-0.91,0-1.65-0.74-1.65-1.65v-12.17c0-0.91,0.74-1.65,1.65-1.65h4.43
		c0.91,0,1.65,0.74,1.65,1.65v12.17C76.35,179.35,75.61,180.09,74.69,180.09z"/>
	<path class="st1" d="M74.69,209.1h-4.43c-0.91,0-1.65-0.74-1.65-1.65v-12.17c0-0.91,0.74-1.65,1.65-1.65h4.43
		c0.91,0,1.65,0.74,1.65,1.65v12.17C76.35,208.36,75.61,209.1,74.69,209.1z"/>
	<path class="st1" d="M74.69,240.05h-4.43c-0.91,0-1.65-0.74-1.65-1.65v-12.17c0-0.91,0.74-1.65,1.65-1.65h4.43
		c0.91,0,1.65,0.74,1.65,1.65v12.17C76.35,239.31,75.61,240.05,74.69,240.05z"/>
	<path class="st1" d="M157.87,151.07h-4.43c-0.91,0-1.65-0.74-1.65-1.65v-12.17c0-0.91,0.74-1.65,1.65-1.65h4.43
		c0.91,0,1.65,0.74,1.65,1.65v12.17C159.52,150.33,158.78,151.07,157.87,151.07z"/>
	<path class="st1" d="M157.87,180.09h-4.43c-0.91,0-1.65-0.74-1.65-1.65v-12.17c0-0.91,0.74-1.65,1.65-1.65h4.43
		c0.91,0,1.65,0.74,1.65,1.65v12.17C159.52,179.35,158.78,180.09,157.87,180.09z"/>
	<path class="st1" d="M157.87,209.1h-4.43c-0.91,0-1.65-0.74-1.65-1.65v-12.17c0-0.91,0.74-1.65,1.65-1.65h4.43
		c0.91,0,1.65,0.74,1.65,1.65v12.17C159.52,208.36,158.78,209.1,157.87,209.1z"/>
	<path class="st1" d="M157.87,240.05h-4.43c-0.91,0-1.65-0.74-1.65-1.65v-12.17c0-0.91,0.74-1.65,1.65-1.65h4.43
		c0.91,0,1.65,0.74,1.65,1.65v12.17C159.52,239.31,158.78,240.05,157.87,240.05z"/>
</g>
<g>
	<path class="st0" d="M61.45,104.5c0-14.05,0-28.11,0-42.16c0.03-0.24,0.07-0.48,0.1-0.71c0.97-5.93,4.32-9.84,10-11.74
		c0.56-0.19,1.14-0.3,1.74-0.45c-5.95-4.01-9.68-9.45-10.68-16.55c-1-7.09,0.88-13.44,5.61-18.82c8.84-10.06,24.07-10.86,33.9-1.55
		c4.76,4.51,7.27,10.11,7.33,16.66c0.08,8.43-3.61,15-10.4,19.94c9.21,0,18.39,0,27.63,0c-11.78-8.01-13.61-23.63-5.53-33.96
		c7.85-10.04,22.13-12.24,32.58-4.52c5.26,3.89,8.51,9.12,9.33,15.62c1.24,9.86-2.63,17.5-10.63,23.2c3.29,0.61,6.06,2.11,8.27,4.6
		c2.07,2.34,3.29,5.07,3.47,8.19c0.11,1.99,0.06,3.98,0.08,5.97c0,0.15,0,0.31,0,0.49c1.68,0,3.29,0.01,4.9-0.01
		c0.35,0,0.7-0.06,1.03-0.14c1.28-0.33,2.35-1.07,3.31-1.93c1.25-1.12,2.42-2.34,3.66-3.47c1.19-1.08,2.4-2.16,3.67-3.15
		c1.02-0.79,2.22-1.14,3.55-1.09c1.29,0.06,2.58,0.01,3.88,0.01c0.14,0,0.29,0,0.44,0c0,16.33,0,32.62,0,48.93
		c-1.75,0-3.47,0-5.19,0c-0.07,0-0.13-0.02-0.2-0.03c-1.22-0.18-2.28-0.76-3.19-1.55c-1.5-1.31-2.94-2.68-4.38-4.06
		c-1.18-1.12-2.33-2.28-3.71-3.16c-1.02-0.65-2.1-1.03-3.34-0.99c-1.32,0.04-2.64,0.01-3.96,0.01c-0.14,0-0.29,0-0.48,0
		c0,0.19,0,0.33,0,0.47c0,1.56,0,3.12,0,4.68c0,3.34-0.98,6.36-3.07,8.97c-2.83,3.52-6.52,5.41-11.05,5.42
		c-24.81,0.03-49.61,0.02-74.42,0c-0.87,0-1.75-0.08-2.61-0.23c-5.46-0.95-10.01-5.27-11.25-10.67
		C61.68,106.01,61.59,105.25,61.45,104.5z"/>
</g>
</svg>
